<svg height="512pt" viewBox="-39 0 512 512" width="512pt" xmlns="http://www.w3.org/2000/svg"><path d="m249.167969 7.835938h-64.28125c-19.402344 0-35.1875 15.808593-35.1875 35.238281v15.042969c0 19.429687 15.785156 35.234374 35.1875 35.234374h5.277343v-21.683593h-3.070312c-7.726562 0-14.046875-6.332031-14.046875-14.066407v-14.011718c0-7.734375 6.324219-14.066406 14.046875-14.066406h59.867188c7.726562 0 14.046874 6.332031 14.046874 14.066406v14.011718c0 7.734376-6.320312 14.066407-14.046874 14.066407h-3.066407v21.683593h5.273438c19.402343 0 35.1875-15.804687 35.1875-35.234374v-15.042969c0-19.429688-15.785157-35.238281-35.1875-35.238281zm0 0" fill="#00a97d"/><path d="m217.027344 88.78125c9.101562 0 18.066406.585938 26.863281 1.710938v-21.867188c0-5.75-4.699219-10.449219-10.449219-10.449219h-32.828125c-5.75 0-10.449219 4.699219-10.449219 10.449219v21.867188c8.796876-1.128907 17.761719-1.710938 26.863282-1.710938zm0 0" fill="#fff"/><path d="m177.390625 92.539062c4.214844-.804687 8.46875-1.5 12.773437-2.046874v-18.824219h-3.070312c-7.722656 0-14.042969-6.332031-14.042969-14.066407v-14.011718c0-7.734375 6.320313-14.066406 14.042969-14.066406h12.171875v-21.6875h-14.378906c-19.402344 0-35.1875 15.808593-35.1875 35.238281v15.042969c0 16.851562 11.878906 30.972656 27.691406 34.421874zm0 0" fill="#5de0bf"/><path d="m211.804688 88.847656v-20.222656c0-5.75 4.703124-10.449219 10.449218-10.449219h-21.640625c-5.75 0-10.449219 4.699219-10.449219 10.449219v21.867188c7.109376-.910157 14.328126-1.464844 21.640626-1.644532zm0 0" fill="#e1eaf8"/><path d="m217.027344 504.164062c-115.347656 0-209.191406-93.167968-209.191406-207.691406 0-114.519531 93.84375-207.691406 209.191406-207.691406 115.351562 0 209.191406 93.171875 209.191406 207.691406 0 114.523438-93.839844 207.691406-209.191406 207.691406zm0 0" fill="#76ffd9"/><path d="m29.566406 296.472656c0-110.902344 88.007813-201.78125 198.328125-207.410156-3.597656-.1875-7.222656-.28125-10.863281-.28125-115.351562 0-209.195312 93.171875-209.195312 207.691406 0 114.523438 93.84375 207.691406 209.191406 207.691406 3.644531 0 7.265625-.09375 10.867187-.277343-110.320312-5.632813-198.328125-96.511719-198.328125-207.414063zm0 0" fill="#5de0bf"/><path d="m390.746094 296.472656c0-95.25-77.777344-172.46875-173.71875-172.46875s-173.71875 77.21875-173.71875 172.46875c0 95.253906 77.777344 172.46875 173.71875 172.46875s173.71875-77.214844 173.71875-172.46875zm0 0" fill="#fff"/><path d="m75.96875 296.472656c0-89.785156 69.105469-163.535156 157.386719-171.707031-5.375-.496094-10.820313-.761719-16.328125-.761719-95.9375 0-173.71875 77.214844-173.71875 172.46875s77.777344 172.46875 173.71875 172.46875c5.507812 0 10.953125-.265625 16.328125-.765625-88.28125-8.171875-157.386719-81.917969-157.386719-171.703125zm0 0" fill="#d8e0ea"/><path d="m217.027344 233.472656c8.757812 0 17.101562 1.761719 24.6875 4.941406l-24.6875-42.449218-24.6875 42.453125c7.589844-3.183594 15.929687-4.945313 24.6875-4.945313zm0 0" fill="#76ffd9"/><path d="m217.027344 359.472656c-8.757813 0-17.101563-1.761718-24.6875-4.945312l24.6875 42.457031 24.6875-42.457031c-7.585938 3.183594-15.929688 4.945312-24.6875 4.945312zm0 0" fill="#76ffd9"/><path d="m153.570312 296.472656c0-8.691406 1.773438-16.976562 4.984376-24.511718l-42.761719 24.511718 42.761719 24.511719c-3.207032-7.535156-4.984376-15.816406-4.984376-24.511719zm0 0" fill="#76ffd9"/><path d="m318.265625 296.472656-42.761719-24.507812c3.207032 7.53125 4.980469 15.816406 4.980469 24.507812 0 8.695313-1.769531 16.976563-4.980469 24.511719zm0 0" fill="#76ffd9"/><path d="m273.285156 267.328125-22.355468 41.714844-.003907-.007813c4.792969-12.769531 2.027344-27.699218-8.3125-37.964844-10.339843-10.265624-25.378906-13.007812-38.242187-8.25l-.003906-.003906 42.015624-22.195312c-8.777343-4.558594-18.761718-7.148438-29.355468-7.148438-35.050782 0-63.457032 28.203125-63.457032 63 0 10.519532 2.609376 20.429688 7.203126 29.144532l22.355468-41.710938h.003906c-4.792968 12.773438-2.03125 27.703125 8.308594 37.96875s25.378906 13.007812 38.242188 8.25l.003906.003906-42.011719 22.195313c8.777344 4.554687 18.757813 7.148437 29.355469 7.148437 35.046875 0 63.453125-28.207031 63.453125-63 0-10.519531-2.609375-20.425781-7.199219-29.144531zm0 0" fill="#ffc843"/><path d="m204.371094 262.816406.003906.003906c12.859375-4.757812 27.898438-2.015624 38.238281 8.25 10.339844 10.265626 13.105469 25.195313 8.3125 37.964844l.003907.007813 52.941406-98.789063zm0 0" fill="#ff8025"/><path d="m191.441406 321.875c-10.339844-10.265625-13.101562-25.195312-8.308594-37.96875h-.003906l-52.941406 98.785156 99.5-52.5625-.003906-.003906c-12.863282 4.757812-27.902344 2.015625-38.242188-8.25zm0 0" fill="#76ffd9"/><path d="m242.613281 321.875c-14.128906 14.03125-37.039062 14.03125-51.171875 0-14.128906-14.027344-14.128906-36.773438 0-50.804688 14.128906-14.027343 37.042969-14.027343 51.171875 0 14.132813 14.03125 14.132813 36.777344 0 50.804688zm0 0" fill="#fff"/><path d="m226.675781 306.050781c-5.328125 5.292969-13.96875 5.292969-19.296875 0-5.332031-5.289062-5.332031-13.867187 0-19.160156 5.328125-5.289063 13.96875-5.289063 19.296875 0 5.332031 5.292969 5.332031 13.871094 0 19.160156zm0 0" fill="#fff"/><path d="m278.332031 89.714844c8.507813-7.871094 13.859375-19.113282 13.859375-31.597656v-15.042969c0-23.753907-19.300781-43.074219-43.023437-43.074219h-64.28125c-23.722657 0-43.023438 19.320312-43.023438 43.074219v15.042969c0 12.484374 5.351563 23.726562 13.863281 31.597656-89.914062 26.335937-155.726562 109.054687-155.726562 206.757812 0 118.84375 97.359375 215.527344 217.027344 215.527344 12.359375 0 24.753906-1.046875 36.84375-3.109375 4.269531-.726563 7.136718-4.777344 6.410156-9.042969-.730469-4.265625-4.78125-7.125-9.046875-6.40625-11.21875 1.914063-22.730469 2.886719-34.207031 2.886719-111.027344 0-201.355469-89.65625-201.355469-199.855469 0-110.199218 90.328125-199.851562 201.355469-199.851562s201.355468 89.652344 201.355468 199.851562c0 42.757813-13.46875 83.566406-38.945312 118.011719-24.980469 33.773437-59.226562 58.570313-99.035156 71.703125-4.109375 1.355469-6.34375 5.785156-4.984375 9.898438 1.355469 4.109374 5.785156 6.347656 9.894531 4.984374 42.902344-14.152343 79.808594-40.871093 106.726562-77.265624 27.492188-37.164063 42.019532-81.195313 42.019532-127.332032 0-97.707031-65.816406-180.421875-155.726563-206.757812zm-42.277343-7.929688c-6.269532-.546875-12.613282-.839844-19.027344-.839844-6.410156 0-12.753906.292969-19.027344.839844v-13.160156c0-1.417969 1.195312-2.613281 2.613281-2.613281h32.828125c1.417969 0 2.613282 1.195312 2.613282 2.613281zm40.464843-23.667968c0 12.582031-8.511719 23.199218-20.070312 26.402343-1.566407-.285156-3.140625-.550781-4.722657-.804687v-4.75c9.78125-2.1875 17.121094-10.925782 17.121094-21.363282v-14.011718c0-12.078125-9.820312-21.902344-21.886718-21.902344h-6.945313c-4.328125 0-7.835937 3.507812-7.835937 7.835938 0 4.332031 3.507812 7.839843 7.835937 7.839843h6.945313c3.425781 0 6.210937 2.792969 6.210937 6.226563v14.011718c0 2.035157-.984375 3.839844-2.492187 4.976563-2.507813-7.117187-9.277344-12.238281-17.238282-12.238281h-32.832031c-7.960937 0-14.730469 5.121094-17.234375 12.238281-1.507812-1.136719-2.492188-2.941406-2.492188-4.976563v-14.011718c0-3.433594 2.785157-6.226563 6.207032-6.226563h23.667968c4.332032 0 7.839844-3.507812 7.839844-7.839843 0-4.328126-3.507812-7.835938-7.839844-7.835938h-23.664062c-12.066406 0-21.882812 9.824219-21.882812 21.902344v14.011718c0 10.4375 7.335937 19.179688 17.117187 21.363282v4.75c-1.578125.253906-3.152344.519531-4.722656.804687-11.554688-3.199219-20.066407-13.820312-20.066407-26.402343v-15.042969c-.003906-15.109375 12.265626-27.402344 27.347657-27.402344h64.28125c15.082031 0 27.351562 12.292969 27.351562 27.402344zm0 0" fill="#434c54"/><g fill="#adb5bd"><path d="m216.789062 437.480469c-4.289062.128906-7.597656 3.871093-7.597656 8.164062v14.023438c0 4.328125 3.507813 7.835937 7.835938 7.835937s7.835937-3.507812 7.835937-7.835937v-14.351563c0-4.410156-3.636719-7.96875-8.074219-7.835937zm0 0"/><path d="m116.96875 395.902344c-3.121094-2.941406-8.109375-2.636719-11.140625.398437l-9.917969 9.917969c-3.0625 3.058594-3.0625 8.023438 0 11.082031 3.058594 3.0625 8.023438 3.0625 11.082032 0l10.148437-10.148437c3.117187-3.117188 3.058594-8.207032-.171875-11.25zm0 0"/><path d="m44.585938 296.710938c.128906 4.289062 3.871093 7.597656 8.164062 7.597656h14.023438c4.328124 0 7.835937-3.507813 7.835937-7.835938s-3.507813-7.835937-7.835937-7.835937h-14.351563c-4.410156 0-7.964844 3.636719-7.835937 8.074219zm0 0"/><path d="m389.359375 296.234375c-.128906-4.289063-3.871094-7.597656-8.160156-7.597656h-14.027344c-4.328125 0-7.835937 3.507812-7.835937 7.835937s3.507812 7.835938 7.835937 7.835938h14.355469c4.40625 0 7.964844-3.636719 7.832031-8.074219zm0 0"/><path d="m338.835938 175.429688c-3.125-2.941407-8.109376-2.636719-11.144532.398437l-9.914062 9.917969c-3.0625 3.058594-3.0625 8.023437 0 11.082031 3.058594 3.0625 8.019531 3.0625 11.082031 0l10.148437-10.148437c3.117188-3.117188 3.058594-8.207032-.171874-11.25zm0 0"/><path d="m117.347656 196.628906c2.941406-3.125 2.636719-8.109375-.398437-11.144531l-9.917969-9.917969c-3.058594-3.058594-8.023438-3.058594-11.082031 0-3.0625 3.0625-3.0625 8.023438 0 11.085938l10.148437 10.148437c3.117188 3.117188 8.207032 3.058594 11.25-.171875zm0 0"/><path d="m339.175781 417.304688c2.941407-3.125 2.632813-8.109376-.398437-11.144532l-9.917969-9.917968c-3.0625-3.058594-8.023437-3.058594-11.082031 0-3.0625 3.0625-3.0625 8.023437 0 11.085937l10.148437 10.148437c3.117188 3.117188 8.203125 3.058594 11.25-.171874zm0 0"/><path d="m214.210938 171.085938v-3.648438l7.523437 8.757812c.023437.023438.046875.042969.070313.066407 1.4375 1.628906 3.53125 2.664062 5.875 2.664062 4.328124 0 7.835937-3.507812 7.835937-7.835937v-24.804688c0-4.328125-3.507813-7.835937-7.835937-7.835937-4.328126 0-7.835938 3.507812-7.835938 7.835937v3.652344l-7.523438-8.757812c-.050781-.058594-.09375-.097657-.144531-.148438-1.433593-1.582031-3.496093-2.582031-5.800781-2.582031-4.328125 0-7.835938 3.507812-7.835938 7.835937v24.800782c0 4.328124 3.507813 7.835937 7.835938 7.835937 4.328125.003906 7.835938-3.503906 7.835938-7.835937zm0 0"/></g></svg>